<svg height="512" viewBox="0 0 512 512" width="512" xmlns="http://www.w3.org/2000/svg"><path d="m432 447.993h-351.834a16 16 0 0 1 -16-16v-352a16 16 0 0 1 16-16h271.834l8 16h16l8-16h32l32 32v336a16 16 0 0 1 -16 16z" fill="#4298d1"/><rect fill="#eaeae8" height="216" rx="16" width="256" x="127.999" y="231.993"/><path d="m87.999 407.993h16v16h-16z" fill="#217aac"/><path d="m408 407.993h16v16h-16z" fill="#217aac"/><path d="m128 63.992h208a0 0 0 0 1 0 0v104a16 16 0 0 1 -16 16h-176a16 16 0 0 1 -16-16v-104a0 0 0 0 1 0 0z" fill="#3e8cc7"/><path d="m320 183.993h-128a16 16 0 0 1 -16-16v-112h160v112a16 16 0 0 1 -16 16z" fill="#ebebeb"/><path d="m256 87.992h48v64h-48z" fill="#3880b5"/><path d="m256 95.992h40v56h-40z" fill="#3e8cc7"/><path d="m167.999 287.993h176v16h-176z" fill="#fcd795"/><path d="m167.999 335.993h176v16h-176z" fill="#fcd795"/><path d="m167.999 383.993h176v16h-176z" fill="#fcd795"/><g fill="#217aac"><path d="m360 103.992h16v16h-16z"/><path d="m360 135.992h16v32h-16z"/><path d="m87.999 87.992h16v16h-16z"/></g></svg>