<svg xmlns="http://www.w3.org/2000/svg" version="1.0" width="900.000000" height="436.000000" preserveAspectRatio="xMidYMid meet" style=""><rect id="backgroundrect" width="100%" height="100%" x="0" y="0" fill="none" stroke="none"/>
<metadata>
Created by potrace 1.15, written by Peter Selinger 2001-2017
</metadata>

<g class="currentLayer" style=""><title>Layer 1</title><g transform="translate(0,436) scale(0.10000000149011612,-0.10000000149011612) " fill="#ffffff" stroke="none" id="svg_1" class="selected" fill-opacity="1">
<path d="M2240 4069 c-148 -9 -270 -36 -450 -98 -202 -71 -331 -139 -505 -267 -153 -112 -347 -308 -390 -394 -9 -19 -28 -46 -40 -60 -22 -23 -119 -208 -163 -310 -46 -107 -106 -348 -123 -497 -13 -119 -4 -405 17 -513 13 -67 43 -171 65 -225 4 -11 13 -38 20 -60 6 -22 15 -49 20 -60 4 -11 15 -42 25 -70 10 -27 26 -61 36 -74 10 -13 18 -32 18 -41 0 -23 26 -33 48 -19 9 6 30 32 45 57 15 26 50 79 77 117 31 44 49 81 50 99 0 25 -23 104 -50 171 -87 214 -98 575 -27 856 27 107 49 165 102 270 36 74 77 145 90 159 12 14 34 43 49 65 53 81 96 136 138 178 84 83 194 175 233 196 22 12 69 40 105 61 121 74 225 115 415 165 88 23 126 27 310 32 193 5 219 4 315 -17 58 -12 146 -36 195 -52 101 -32 286 -122 312 -150 9 -10 22 -18 29 -18 7 0 29 -14 48 -31 34 -29 37 -30 73 -19 21 7 43 17 49 21 6 5 23 10 38 11 15 1 32 8 38 15 6 7 18 13 27 13 9 0 23 6 30 13 6 6 26 12 43 12 17 0 33 6 35 13 3 6 -1 12 -7 12 -12 0 -20 5 -120 83 -30 23 -82 58 -115 78 -83 51 -337 179 -354 179 -8 0 -44 9 -80 20 -36 11 -75 21 -86 23 -11 2 -32 9 -46 14 -14 6 -59 16 -100 22 -72 10 -309 32 -319 29 -3 0 -57 -4 -120 -9z" id="svg_2" fill="#ffffff" fill-opacity="1"/>
<path d="M3937 3670 c-16 -5 -34 -13 -40 -18 -7 -5 -28 -13 -47 -17 -19 -4 -54 -16 -77 -26 -23 -11 -48 -19 -55 -19 -8 0 -18 -4 -23 -8 -6 -4 -28 -14 -50 -21 -73 -23 -180 -62 -197 -72 -10 -5 -26 -9 -36 -9 -10 0 -22 -3 -26 -7 -3 -4 -21 -12 -39 -19 -38 -14 -116 -43 -211 -78 -38 -14 -77 -26 -87 -26 -22 0 -25 -17 -4 -22 17 -4 281 -227 289 -245 3 -6 -9 -31 -27 -55 -37 -50 -88 -125 -153 -223 -26 -38 -53 -74 -60 -78 -8 -4 -14 -12 -14 -17 0 -5 -14 -29 -31 -52 -16 -24 -44 -64 -61 -90 -34 -53 -75 -66 -85 -28 -4 16 -14 20 -44 20 -26 0 -42 5 -45 15 -3 8 -22 17 -42 21 -21 3 -49 14 -64 25 -15 10 -39 19 -53 19 -14 0 -34 9 -45 20 -11 11 -31 20 -44 20 -13 0 -29 7 -36 15 -13 16 -40 20 -40 7 0 -10 -65 -93 -297 -382 -38 -47 -79 -101 -93 -120 -13 -19 -37 -51 -54 -70 -36 -41 -76 -92 -108 -136 -13 -18 -54 -72 -93 -120 -122 -154 -145 -172 -179 -139 -8 8 -29 18 -46 21 -17 4 -48 15 -68 25 -20 11 -48 19 -63 19 -15 0 -29 7 -32 14 -3 8 -23 18 -44 22 -21 4 -54 15 -73 24 -19 10 -47 21 -62 24 -25 6 -28 3 -28 -18 0 -13 -7 -30 -17 -37 -9 -8 -31 -36 -50 -64 -18 -27 -51 -75 -73 -105 -39 -54 -148 -210 -195 -280 -13 -19 -40 -56 -60 -82 -19 -25 -35 -50 -35 -54 0 -4 -17 -30 -38 -58 -20 -28 -50 -71 -67 -96 -16 -25 -42 -59 -58 -77 l-29 -31 33 -31 c19 -17 44 -31 57 -31 13 0 22 -6 22 -15 0 -8 13 -21 29 -29 16 -9 43 -27 60 -41 30 -26 51 -26 51 -1 0 7 9 21 20 31 11 10 20 26 20 36 0 10 9 23 20 29 11 6 20 15 20 21 0 5 17 32 38 59 20 27 48 65 62 84 14 20 31 44 37 54 23 32 82 116 128 182 24 36 62 90 84 120 22 30 46 65 52 78 14 25 41 29 59 7 7 -8 24 -15 39 -15 15 0 44 -9 66 -20 22 -11 49 -20 61 -20 12 0 27 -6 33 -13 6 -8 36 -19 66 -26 30 -7 55 -16 55 -20 0 -5 12 -11 28 -14 15 -3 34 -8 42 -11 10 -4 22 4 33 23 10 17 42 58 71 93 29 35 74 90 100 123 25 33 88 113 138 178 51 65 113 144 138 176 128 165 189 241 232 292 26 31 48 65 48 76 0 18 4 18 44 9 29 -7 46 -17 49 -28 4 -13 15 -18 40 -18 19 0 40 -6 46 -14 6 -7 31 -19 56 -26 25 -7 50 -19 56 -26 6 -8 24 -14 40 -14 18 0 34 -8 41 -20 8 -13 24 -20 44 -20 17 0 37 -7 44 -15 7 -8 18 -15 24 -15 11 1 66 80 66 95 0 4 18 29 40 55 22 26 40 53 40 60 0 7 18 34 40 60 22 26 40 53 40 60 0 11 31 55 65 91 8 9 15 23 15 32 0 9 6 20 13 24 7 4 27 31 45 58 17 28 37 57 44 65 18 20 35 49 54 92 20 45 24 44 139 -52 124 -102 155 -132 155 -149 0 -9 3 -11 9 -6 5 6 16 66 24 135 9 69 23 168 32 220 9 52 23 138 31 190 15 93 41 246 67 403 14 82 14 82 -36 67z" id="svg_3" fill="#ffffff" fill-opacity="1"/>
<path d="M3966 3128 c-3 -7 -11 -56 -20 -108 -9 -52 -27 -159 -41 -237 l-25 -142 21 -133 c24 -158 20 -333 -13 -488 -11 -52 -24 -114 -29 -138 -5 -24 -15 -58 -23 -75 -7 -18 -19 -48 -26 -67 -20 -57 -39 -103 -57 -135 -9 -16 -23 -43 -30 -58 -85 -163 -203 -304 -385 -458 -71 -61 -282 -183 -351 -204 -23 -7 -77 -27 -119 -44 -161 -64 -470 -94 -687 -65 -116 15 -316 71 -386 108 -16 9 -35 16 -41 16 -6 0 -17 7 -24 15 -7 8 -23 15 -35 15 -12 0 -28 7 -35 15 -6 8 -22 17 -33 21 -12 4 -49 25 -82 47 -33 22 -75 51 -94 63 -19 13 -71 59 -116 103 l-81 81 -30 -41 c-16 -22 -48 -65 -71 -96 -24 -31 -43 -60 -43 -65 0 -4 -9 -17 -21 -29 l-21 -21 84 -79 c181 -172 392 -298 653 -389 300 -105 683 -124 986 -49 l125 31 60 -27 c32 -15 77 -35 99 -45 22 -9 56 -25 77 -34 20 -9 43 -16 51 -16 8 0 17 -6 20 -14 3 -8 19 -17 36 -21 16 -3 35 -13 42 -21 6 -8 17 -14 24 -14 7 0 61 -23 121 -50 60 -28 124 -57 142 -65 17 -8 48 -22 67 -32 19 -9 38 -14 41 -11 3 3 0 24 -5 46 -6 22 -15 82 -20 133 -8 89 -20 181 -57 447 l-16 113 81 82 c74 76 106 114 201 244 136 184 252 479 290 732 6 41 13 78 17 84 7 12 5 426 -3 438 -2 5 -14 61 -24 126 -19 113 -27 142 -55 208 -8 17 -23 57 -35 90 -13 33 -35 88 -51 123 -16 35 -29 70 -29 77 0 19 -19 29 -24 13z" id="svg_4" fill="#ffffff" fill-opacity="1"/>
<path d="M3505 2678 c-3 -13 -4 -233 -3 -491 3 -461 3 -467 -17 -469 -11 -1 -125 -2 -252 -3 l-233 -1 0 183 c0 161 -2 183 -16 183 -9 0 -28 7 -42 15 -15 8 -46 23 -69 35 l-42 20 -1 -417 c0 -229 -2 -418 -3 -419 -1 -2 -112 -4 -245 -6 l-242 -3 -1 225 c-1 124 -2 243 -2 265 -1 22 2 52 6 68 5 16 3 27 -3 27 -5 0 -10 -8 -10 -18 0 -10 -16 -36 -36 -58 -20 -21 -49 -58 -65 -81 l-29 -42 0 -350 0 -351 -224 0 c-135 0 -227 -4 -231 -10 -3 -5 7 -12 22 -16 15 -3 48 -12 73 -20 25 -8 74 -23 110 -34 87 -28 246 -57 350 -65 87 -7 412 26 448 45 9 4 53 18 97 30 123 34 323 141 440 237 106 85 153 132 230 229 26 32 58 69 71 82 21 20 29 40 25 65 0 4 3 7 8 7 18 0 99 178 139 305 54 174 81 398 62 521 -10 60 -10 86 -1 102 14 26 15 75 1 67 -5 -3 -10 -19 -10 -36 0 -16 -4 -29 -10 -29 -9 0 -244 202 -255 220 -11 18 -34 11 -40 -12z" id="svg_5" fill="#ffffff" fill-opacity="1"/>
<path d="M4690 2600 l0 -100 190 0 c117 0 190 -4 190 -10 0 -5 -66 -120 -147 -255 -82 -134 -167 -277 -191 -316 l-43 -71 3 -101 3 -102 313 -3 312 -2 0 105 0 105 -194 0 c-175 0 -242 8 -186 23 11 3 20 12 20 21 0 8 10 30 23 49 12 19 38 60 57 91 19 32 45 73 58 92 12 19 22 38 22 43 0 4 9 16 20 26 11 10 20 26 20 35 0 9 9 25 20 35 11 10 20 23 20 29 0 6 17 36 39 67 21 31 42 65 45 77 4 11 13 26 21 32 12 10 15 38 15 121 l0 109 -315 0 -315 0 0 -100z" id="svg_6" fill="#ffffff" fill-opacity="1"/>
<path d="M5549 2638 c0 -35 -2 -271 -4 -526 l-3 -462 22 -6 c11 -3 57 -4 101 -2 l80 3 0 525 0 525 -97 3 -98 3 -1 -63z" id="svg_7" fill="#ffffff" fill-opacity="1"/>
<path d="M5962 2173 l3 -528 305 -2 c168 -2 310 0 315 5 6 4 9 45 7 105 l-4 97 -209 0 c-160 0 -209 3 -209 13 0 6 0 198 0 425 l0 412 -105 0 -106 0 3 -527z" id="svg_8" fill="#ffffff" fill-opacity="1"/>
<path d="M8512 2173 l3 -528 100 -3 100 -3 3 425 c2 234 1 473 -3 531 l-7 105 -99 0 -99 0 2 -527z" id="svg_9" fill="#ffffff" fill-opacity="1"/>
<path d="M6886 2672 c-15 -2 -39 -16 -52 -30 l-23 -27 -1 -456 0 -455 31 -30 30 -29 248 -3 248 -3 37 34 36 34 0 455 0 454 -29 28 -29 28 -234 2 c-128 0 -246 0 -262 -2z m348 -517 l1 -320 -90 2 c-49 1 -100 2 -112 3 l-23 0 0 320 0 321 112 -3 112 -3 0 -320z" id="svg_10" fill="#ffffff" fill-opacity="1"/>
<path d="M7666 2672 c-2 -4 -4 -236 -4 -515 l1 -507 21 -6 c12 -3 57 -4 101 -2 l80 3 3 216 2 217 180 4 180 4 30 29 30 29 0 236 0 236 -27 27 -28 26 -282 5 c-155 3 -284 2 -287 -2z m424 -291 l0 -99 -102 -4 c-57 -2 -106 -2 -110 0 -5 2 -8 48 -8 103 l0 99 110 0 110 0 0 -99z" id="svg_11" fill="#ffffff" fill-opacity="1"/>
<path d="M1478 1446 c-15 -22 -49 -73 -76 -111 l-49 -70 36 -32 c68 -60 146 -120 218 -166 39 -26 75 -51 78 -57 20 -32 25 6 25 184 l0 194 -37 7 c-21 4 -45 12 -53 19 -8 7 -34 18 -57 25 -25 7 -43 18 -43 26 0 29 -16 22 -42 -19z" id="svg_12" fill="#ffffff" fill-opacity="1"/>
</g></g></svg>